<?xml version="1.0" standalone="no"?>
<!DOCTYPE svg PUBLIC "-//W3C//DTD SVG 20010904//EN"
 "http://www.w3.org/TR/2001/REC-SVG-20010904/DTD/svg10.dtd">
<svg version="1.0" xmlns="http://www.w3.org/2000/svg"
 width="50.000000pt" height="50.000000pt" viewBox="0 0 50.000000 50.000000"
 preserveAspectRatio="xMidYMid meet">

<g transform="translate(0.000000,50.000000) scale(0.100000,-0.100000)"
fill="#2B1887" stroke="none">
<path d="M110 267 l0 -163 62 -13 c44 -9 63 -10 66 -2 2 6 28 11 58 11 l54 0
-2 63 -2 62 -3 -52 -4 -53 -50 0 -49 0 0 135 0 135 -32 14 c-32 14 -31 14 49
15 l82 1 4 -47 3 -48 2 53 2 52 -120 0 -120 0 0 -163z"/>
<path d="M376 295 c-3 -8 -15 -15 -26 -15 -11 0 -20 -4 -20 -10 0 -5 11 -10
24 -10 14 0 26 -7 28 -15 3 -13 7 -12 31 4 l29 18 -30 22 c-25 18 -31 19 -36
6z"/>
</g>
</svg>
